<?xml version="1.0" encoding="UTF-8"?>
<svg id="Layer_1" data-name="Layer 1" xmlns="http://www.w3.org/2000/svg" viewBox="0 0 1080 410.94">
  <defs>
    <style>
      .cls-1 {
        fill: #fff;
      }
    </style>
  </defs>
  <g>
    <path d="M170.35,102.87h-92.67v92.67c0,51.1,41.57,92.67,92.67,92.67s92.67-41.57,92.67-92.67-41.57-92.67-92.67-92.67Z"/>
    <path class="cls-1" d="M150.25,156.98c0,30.67-.41,26.9.96,25.43,5.15-5.47,12.56-8.57,20.33-8.25,22.91.94,33.73,29.38,16.76,45.33-16.86,15.85-44.12,2.97-44.12-17.72-.01-.23-.04-50.03-.04-74.23l-21.45.45v72.3c0,43.51,53.93,64.32,83.06,32,34.07-37.81-8-97.33-55.49-75.31Z"/>
  </g>
  <g>
    <path d="M527.28,164.18v-25.57h-3.43c-35.27,0-63.97,26.79-63.97,59.72v69.07h27.05v-69.07c0-18.83,16.56-34.15,36.92-34.15h3.43Z"/>
    <path d="M731.29,139.08c-35.38,0-64.16,28.78-64.16,64.16s28.78,64.16,64.16,64.16c24.12,0,46.01-13.41,57.11-34.99l2.58-5h-31.68l-1.02,1.1c-6.98,7.51-16.57,11.66-26.99,11.66-15.29,0-28.92-9.33-34.49-23.4h97.14l.5-2.84c.66-3.78,1-7.37,1-10.69,0-35.38-28.78-64.16-64.16-64.16ZM696.75,189.71c5.43-14.18,19.09-23.59,34.54-23.59s29.1,9.41,34.53,23.59h-69.07Z"/>
    <path d="M833.09,203.24v-98.35l-27.05.57v97.78c0,35.38,28.78,64.16,64.16,64.16h3.44v-27.05h-3.44c-20.46,0-37.11-16.65-37.11-37.11Z"/>
    <path d="M938.16,139.08c-35.37,0-64.16,28.78-64.16,64.16s28.78,64.16,64.16,64.16,64.16-28.78,64.16-64.16-28.78-64.16-64.16-64.16ZM938.16,240.16c-20.46,0-37.11-16.56-37.11-36.92s16.65-37.12,37.11-37.12,37.11,16.65,37.11,37.12-16.65,36.92-37.11,36.92Z"/>
    <path d="M627.47,138.02v11.72c-10.79-7.68-23.56-11.72-37.11-11.72-35.38,0-64.16,28.78-64.16,64.16s28.78,64.16,64.16,64.16c13.18,0,26.27-4.21,37.11-11.91v11.91h27.05v-128.32h-27.05ZM590.36,239.1c-20.46,0-37.11-16.56-37.11-36.92s16.65-37.12,37.11-37.12,37.11,16.65,37.11,37.12-16.65,36.92-37.11,36.92Z"/>
    <path d="M356.96,146.52v35.09c7.37-10.21,19.62-15.83,31.67-15.26,32.21,1.31,47.7,41.38,23.66,64-22.78,21.42-60.43,6.36-62.27-24.75-.05-.76-.07-94.56-.07-100.7l-27.05.56v97.78c0,58.46,72.5,86.45,111.63,43.01,47.05-52.21-13.81-133.46-77.56-99.73Z"/>
  </g>
</svg>