<?xml version="1.0" encoding="UTF-8"?>
<svg id="Layer_1" data-name="Layer 1" xmlns="http://www.w3.org/2000/svg" viewBox="0 0 1080 410.94">
  <defs>
    <style>
      .cls-1 {
        fill: #fff;
      }
    </style>
  </defs>
  <path class="cls-1" d="M156.81,109.4H60.74v96.07c0,52.97,43.09,96.07,96.07,96.07s96.07-43.1,96.07-96.07-43.1-96.07-96.07-96.07ZM193.49,243.56c-30.19,33.51-86.1,11.93-86.1-33.17v-74.95l22.23-.46c0,25.09.03,76.71.05,76.95,0,21.45,28.26,34.8,45.73,18.36,17.6-16.53,6.39-46.02-17.37-46.99-8.04-.32-15.73,2.89-21.07,8.56-1.42,1.52-.99,5.43-.99-26.36,49.22-22.83,92.84,38.87,57.52,78.06Z"/>
  <g>
    <path class="cls-1" d="M526.81,172.96v-26.51h-3.56c-36.56,0-66.31,27.77-66.31,61.91v71.61h28.04v-71.61c0-19.52,17.17-35.4,38.27-35.4h3.56Z"/>
    <path class="cls-1" d="M738.3,146.94c-36.68,0-66.51,29.84-66.51,66.52s29.83,66.5,66.51,66.5c25,0,47.69-13.89,59.2-36.26l2.68-5.19h-32.85l-1.05,1.14c-7.24,7.78-17.18,12.08-27.98,12.08-15.85,0-29.98-9.67-35.75-24.26h100.69l.53-2.94c.68-3.91,1.03-7.64,1.03-11.07,0-36.68-29.83-66.52-66.5-66.52ZM702.5,199.43c5.63-14.7,19.79-24.45,35.8-24.45s30.16,9.75,35.79,24.45h-71.59Z"/>
    <path class="cls-1" d="M843.83,213.45v-101.95l-28.04.59v101.36c0,36.67,29.84,66.51,66.51,66.51h3.56v-28.04h-3.56c-21.21,0-38.47-17.26-38.47-38.47Z"/>
    <path class="cls-1" d="M952.75,146.94c-36.67,0-66.5,29.84-66.5,66.52s29.83,66.5,66.5,66.5,66.51-29.83,66.51-66.5-29.83-66.52-66.51-66.52ZM952.75,251.73c-21.21,0-38.47-17.17-38.47-38.27s17.26-38.48,38.47-38.48,38.47,17.26,38.47,38.48-17.26,38.27-38.47,38.27Z"/>
    <path class="cls-1" d="M630.68,145.84v12.15c-11.18-7.96-24.43-12.15-38.47-12.15-36.67,0-66.51,29.84-66.51,66.52s29.84,66.5,66.51,66.5c13.67,0,27.23-4.37,38.47-12.34v12.34h28.04v-133.02h-28.04ZM592.21,250.63c-21.21,0-38.47-17.17-38.47-38.27s17.26-38.48,38.47-38.48,38.47,17.26,38.47,38.48-17.26,38.27-38.47,38.27Z"/>
    <path class="cls-1" d="M350.25,154.66v36.38c7.64-10.58,20.34-16.41,32.83-15.82,33.39,1.36,49.45,42.9,24.52,66.34-23.62,22.2-62.64,6.59-64.55-25.66-.05-.79-.08-98.02-.08-104.39l-28.04.59v101.37c0,60.6,75.16,89.62,115.72,44.59,48.78-54.12-14.32-138.35-80.4-103.38Z"/>
  </g>
</svg>