<?xml version="1.0" encoding="UTF-8"?>
<svg id="Layer_1" data-name="Layer 1" xmlns="http://www.w3.org/2000/svg" viewBox="0 0 451.21 410.94">
  <defs>
    <style>
      .cls-1 {
        fill: #fff;
      }
    </style>
  </defs>
  <path d="M225.61,51.13H71.26v154.34c0,85.11,69.24,154.34,154.34,154.34s154.34-69.24,154.34-154.34S310.71,51.13,225.61,51.13Z"/>
  <path class="cls-1" d="M192.13,141.25c0,51.08-.68,44.8,1.6,42.35,8.57-9.11,20.92-14.27,33.85-13.74,38.16,1.56,56.17,48.93,27.91,75.5-28.08,26.4-73.48,4.95-73.48-29.51-.02-.39-.07-83.32-.07-123.63l-35.72.74v120.41c0,72.46,89.83,107.13,138.34,53.3,56.75-62.98-13.33-162.09-92.41-125.43Z"/>
</svg>